<svg preserveAspectRatio="none" width="100%" height="100%" overflow="visible" style="display: block;" viewBox="0 0 24 24" fill="none" xmlns="http://www.w3.org/2000/svg">
<g id="settings-gear-1">
<path id="Vector" fill-rule="evenodd" clip-rule="evenodd" d="M3 7.49992C3 7.23165 3.14329 6.98381 3.37578 6.84995L11.6258 2.10003C11.8574 1.96666 12.1426 1.96666 12.3742 2.10003L20.6242 6.84998C20.8567 6.98383 21 7.23167 21 7.49995V16.4999C21 16.7682 20.8567 17.0161 20.6242 17.1499L12.3742 21.8998C12.1426 22.0332 11.8574 22.0332 11.6258 21.8998L3.3758 17.1502C3.1433 17.0164 3 16.7685 3 16.5002V7.49992ZM8.37502 12C8.37502 9.99797 9.99799 8.375 12 8.375C14.0021 8.375 15.625 9.99797 15.625 12C15.625 14.002 14.0021 15.625 12 15.625C9.99799 15.625 8.37502 14.002 8.37502 12Z" fill="var(--fill-0, white)" fill-opacity="0.32"/>
</g>
</svg>
